<svg xmlns="http://www.w3.org/2000/svg" width="180" height="159" viewBox="0 0 180 159">
  <g id="Group_2" data-name="Group 2" transform="translate(-421 -128)">
    <rect id="Rectangle_21" data-name="Rectangle 21" width="90" height="159" transform="translate(466 128)" fill="#1e88e5"/>
    <rect id="Rectangle_22" data-name="Rectangle 22" width="53" height="87" transform="translate(548 200)" fill="#1e88e5"/>
    <rect id="Rectangle_23" data-name="Rectangle 23" width="21" height="21" transform="translate(564 215)" fill="#bbdefb"/>
    <rect id="Rectangle_24" data-name="Rectangle 24" width="21" height="21" transform="translate(564 251)" fill="#bbdefb"/>
    <rect id="Rectangle_25" data-name="Rectangle 25" width="53" height="123" transform="translate(421 164)" fill="#1e88e5"/>
    <rect id="Rectangle_26" data-name="Rectangle 26" width="21" height="21" transform="translate(437 215)" fill="#bbdefb"/>
    <rect id="Rectangle_27" data-name="Rectangle 27" width="21" height="21" transform="translate(437 251)" fill="#bbdefb"/>
    <rect id="Rectangle_28" data-name="Rectangle 28" width="21" height="21" transform="translate(437 179)" fill="#bbdefb"/>
    <rect id="Rectangle_29" data-name="Rectangle 29" width="21" height="21" transform="translate(482 179)" fill="#bbdefb"/>
    <rect id="Rectangle_30" data-name="Rectangle 30" width="21" height="21" transform="translate(482 215)" fill="#bbdefb"/>
    <rect id="Rectangle_31" data-name="Rectangle 31" width="21" height="21" transform="translate(482 143)" fill="#bbdefb"/>
    <rect id="Rectangle_32" data-name="Rectangle 32" width="21" height="21" transform="translate(519 179)" fill="#bbdefb"/>
    <rect id="Rectangle_33" data-name="Rectangle 33" width="21" height="21" transform="translate(519 215)" fill="#bbdefb"/>
    <rect id="Rectangle_34" data-name="Rectangle 34" width="21" height="21" transform="translate(519 143)" fill="#bbdefb"/>
    <rect id="Rectangle_35" data-name="Rectangle 35" width="21" height="36" transform="translate(501 251)" fill="#bbdefb"/>
  </g>
</svg>
