<svg xmlns="http://www.w3.org/2000/svg" width="180" height="159" viewBox="0 0 180 159">
  <g id="Group_3" data-name="Group 3" transform="translate(-440 -381)">
    <rect id="Rectangle_51" data-name="Rectangle 51" width="90" height="159" transform="translate(485 381)" fill="#43a048"/>
    <rect id="Rectangle_52" data-name="Rectangle 52" width="53" height="87" transform="translate(567 453)" fill="#43a048"/>
    <rect id="Rectangle_53" data-name="Rectangle 53" width="21" height="21" transform="translate(583 468)" fill="#c8e6c9"/>
    <rect id="Rectangle_54" data-name="Rectangle 54" width="21" height="21" transform="translate(583 504)" fill="#c8e6c9"/>
    <rect id="Rectangle_55" data-name="Rectangle 55" width="53" height="123" transform="translate(440 417)" fill="#43a048"/>
    <rect id="Rectangle_56" data-name="Rectangle 56" width="21" height="21" transform="translate(456 468)" fill="#c8e6c9"/>
    <rect id="Rectangle_57" data-name="Rectangle 57" width="21" height="21" transform="translate(456 504)" fill="#c8e6c9"/>
    <rect id="Rectangle_58" data-name="Rectangle 58" width="21" height="21" transform="translate(456 432)" fill="#c8e6c9"/>
    <rect id="Rectangle_59" data-name="Rectangle 59" width="21" height="21" transform="translate(501 432)" fill="#c8e6c9"/>
    <rect id="Rectangle_60" data-name="Rectangle 60" width="21" height="21" transform="translate(501 468)" fill="#c8e6c9"/>
    <rect id="Rectangle_61" data-name="Rectangle 61" width="21" height="21" transform="translate(501 396)" fill="#c8e6c9"/>
    <rect id="Rectangle_62" data-name="Rectangle 62" width="21" height="21" transform="translate(538 432)" fill="#c8e6c9"/>
    <rect id="Rectangle_63" data-name="Rectangle 63" width="21" height="21" transform="translate(538 468)" fill="#c8e6c9"/>
    <rect id="Rectangle_64" data-name="Rectangle 64" width="21" height="21" transform="translate(538 396)" fill="#c8e6c9"/>
    <rect id="Rectangle_65" data-name="Rectangle 65" width="21" height="36" transform="translate(520 504)" fill="#c8e6c9"/>
  </g>
</svg>
