<svg xmlns="http://www.w3.org/2000/svg" width="180" height="159" viewBox="0 0 180 159">
  <g id="Group_5" data-name="Group 5" transform="translate(-164 -128)">
    <rect id="Rectangle_1" data-name="Rectangle 1" width="90" height="159" transform="translate(209 128)" fill="#f9a926"/>
    <rect id="Rectangle_3" data-name="Rectangle 3" width="53" height="87" transform="translate(291 200)" fill="#f9a926"/>
    <rect id="Rectangle_8" data-name="Rectangle 8" width="21" height="21" transform="translate(307 215)" fill="#fff9c4"/>
    <rect id="Rectangle_9" data-name="Rectangle 9" width="21" height="21" transform="translate(307 251)" fill="#fff9c4"/>
    <rect id="Rectangle_10" data-name="Rectangle 10" width="53" height="123" transform="translate(164 164)" fill="#f9a926"/>
    <rect id="Rectangle_11" data-name="Rectangle 11" width="21" height="21" transform="translate(180 215)" fill="#fff9c4"/>
    <rect id="Rectangle_12" data-name="Rectangle 12" width="21" height="21" transform="translate(180 251)" fill="#fff9c4"/>
    <rect id="Rectangle_13" data-name="Rectangle 13" width="21" height="21" transform="translate(180 179)" fill="#fff9c4"/>
    <rect id="Rectangle_14" data-name="Rectangle 14" width="21" height="21" transform="translate(225 179)" fill="#fff9c4"/>
    <rect id="Rectangle_15" data-name="Rectangle 15" width="21" height="21" transform="translate(225 215)" fill="#fff9c4"/>
    <rect id="Rectangle_16" data-name="Rectangle 16" width="21" height="21" transform="translate(225 143)" fill="#fff9c4"/>
    <rect id="Rectangle_17" data-name="Rectangle 17" width="21" height="21" transform="translate(262 179)" fill="#fff9c4"/>
    <rect id="Rectangle_18" data-name="Rectangle 18" width="21" height="21" transform="translate(262 215)" fill="#fff9c4"/>
    <rect id="Rectangle_19" data-name="Rectangle 19" width="21" height="21" transform="translate(262 143)" fill="#fff9c4"/>
    <rect id="Rectangle_20" data-name="Rectangle 20" width="21" height="36" transform="translate(244 251)" fill="#fff9c4"/>
  </g>
</svg>
