<svg xmlns="http://www.w3.org/2000/svg" width="180" height="159" viewBox="0 0 180 159">
  <g id="Group_4" data-name="Group 4" transform="translate(-156 -381)">
    <rect id="Rectangle_36" data-name="Rectangle 36" width="90" height="159" transform="translate(201 381)" fill="#9736b1"/>
    <rect id="Rectangle_37" data-name="Rectangle 37" width="53" height="87" transform="translate(283 453)" fill="#9736b1"/>
    <rect id="Rectangle_38" data-name="Rectangle 38" width="21" height="21" transform="translate(299 468)" fill="#e1bee7"/>
    <rect id="Rectangle_39" data-name="Rectangle 39" width="21" height="21" transform="translate(299 504)" fill="#e1bee7"/>
    <rect id="Rectangle_40" data-name="Rectangle 40" width="53" height="123" transform="translate(156 417)" fill="#9736b1"/>
    <rect id="Rectangle_41" data-name="Rectangle 41" width="21" height="21" transform="translate(172 468)" fill="#e1bee7"/>
    <rect id="Rectangle_42" data-name="Rectangle 42" width="21" height="21" transform="translate(172 504)" fill="#e1bee7"/>
    <rect id="Rectangle_43" data-name="Rectangle 43" width="21" height="21" transform="translate(172 432)" fill="#e1bee7"/>
    <rect id="Rectangle_44" data-name="Rectangle 44" width="21" height="21" transform="translate(217 432)" fill="#e1bee7"/>
    <rect id="Rectangle_45" data-name="Rectangle 45" width="21" height="21" transform="translate(217 468)" fill="#e1bee7"/>
    <rect id="Rectangle_46" data-name="Rectangle 46" width="21" height="21" transform="translate(217 396)" fill="#e1bee7"/>
    <rect id="Rectangle_47" data-name="Rectangle 47" width="21" height="21" transform="translate(254 432)" fill="#e1bee7"/>
    <rect id="Rectangle_48" data-name="Rectangle 48" width="21" height="21" transform="translate(254 468)" fill="#e1bee7"/>
    <rect id="Rectangle_49" data-name="Rectangle 49" width="21" height="21" transform="translate(254 396)" fill="#e1bee7"/>
    <rect id="Rectangle_50" data-name="Rectangle 50" width="21" height="36" transform="translate(236 504)" fill="#e1bee7"/>
  </g>
</svg>
